<?xml version="1.0" encoding="utf-8"?>
<!-- Generator: Adobe Illustrator 21.0.2, SVG Export Plug-In . SVG Version: 6.00 Build 0)  -->
<!DOCTYPE svg PUBLIC "-//W3C//DTD SVG 1.1//EN" "http://www.w3.org/Graphics/SVG/1.1/DTD/svg11.dtd">
<svg version="1.1" id="Layer_1" xmlns="http://www.w3.org/2000/svg" xmlns:xlink="http://www.w3.org/1999/xlink" x="0px" y="0px"
	 viewBox="0 0 193 31" style="enable-background:new 0 0 193 31;" xml:space="preserve">
<style type="text/css">
	.st0{fill:#FF006F;}
	.st1{fill:none;stroke:#FFFFFF;stroke-linecap:square;}
</style>
<title>logo/whiteandPink</title>
<desc>Created with Sketch.</desc>
<g id="Page-1">
	<g id="_x30_1-AS-Home" transform="translate(-30.000000, -36.000000)">
		<g id="Home_x2F_Intro">
			<g id="Design_x2F_Navigation_x2F_nobg">
				<g id="logo_x2F_whiteandPink" transform="translate(30.000000, 35.000000)">
					<g id="logo_x2F_white" transform="translate(0.000000, 1.000000)">
						<path id="Audiosear.ch" class="st0" d="M57.1,25h3.1L53.5,7.5h-2.3L44.3,25h3l1.3-3.6h7.2L57.1,25z M52.2,11.6L52.2,11.6
							l2.7,7.5h-5.5L52.2,11.6z M73.8,25V12.4h-2.6v8.4C70.4,22,69,23,67.7,23c-1,0-1.7-0.4-2.1-1c-0.5-0.9-0.6-2.1-0.6-3.3v-6.4
							h-2.6v6.6c0,1.9,0.2,3.6,1.1,4.8c0.8,1,1.9,1.6,3.6,1.6c1.6,0,3.2-0.8,4.1-2.3l0.1,2H73.8z M89.5,6.2h-2.6v7.4
							c-1-1.1-2.5-1.6-3.9-1.6c-3.8,0-6.2,3.2-6.2,6.6c0,3.7,2.6,6.6,6.2,6.6c1.5,0,3.1-0.6,4-2l0.1,1.7h2.5V6.2z M86.9,16.2v4.5
							c-0.6,1.5-2.2,2.2-3.5,2.2c-2.5,0-4-2-4-4.3c0-2.1,1.3-4.3,4-4.3C84.7,14.4,86.1,15,86.9,16.2z M96.1,25V12.4h-2.6V25H96.1z
							 M96.1,10.1V7.4h-2.6v2.7H96.1z M105.6,12.1c-3.8,0-6.5,2.9-6.5,6.6s2.8,6.6,6.5,6.6c3.7,0,6.5-2.9,6.5-6.6
							S109.3,12.1,105.6,12.1z M109.5,18.7c0,2.4-1.6,4.3-3.9,4.3s-3.9-2-3.9-4.3c0-2.4,1.6-4.3,3.9-4.3S109.5,16.3,109.5,18.7z
							 M122.9,13.5c-1-0.9-2.5-1.4-4-1.4c-2.2,0-4.2,1.2-4.2,3.8c0,2.2,1.9,3,3.5,3.7c1.2,0.5,2.4,1,2.4,1.9c0,1.2-1,1.7-2.1,1.7
							c-1.1,0-1.9-0.5-2.8-1.4l-1.7,1.5c1.1,1.3,2.8,2,4.5,2c2.4,0,4.7-1.2,4.7-4c0-2.2-2.1-3.1-3.7-3.8c-1.2-0.5-2.3-0.9-2.3-1.9
							c0-0.9,0.7-1.5,1.7-1.5c0.9,0,1.9,0.5,2.5,1L122.9,13.5z M128.1,19.3h9.5c0.1-0.4,0.1-1,0.1-1.4c0-3.4-2.5-5.9-5.9-5.9
							c-3.6,0-6.3,2.9-6.3,6.7c0,3.7,2.3,6.6,6.3,6.6c2.6,0,4.3-0.9,5.6-3l-1.8-1.2c-0.8,1.4-2,2-3.7,2
							C129.7,23.1,128.3,21.4,128.1,19.3z M135.1,17.4h-6.8c0.4-1.8,1.6-3.2,3.6-3.2C133.7,14.2,134.9,15.6,135.1,17.4z M150.7,25
							v-7.7c0-3.3-1.4-5.3-5.1-5.3c-1.8,0-3.7,0.6-5.1,1.2l0.7,2.1c1.1-0.6,2.5-1.1,4-1.1c2,0,2.9,1.1,2.9,2.9v0.4
							c-1-0.2-1.8-0.3-2.5-0.3c-2.8,0-5.6,1-5.6,4.2c0,2.7,2.2,3.9,4.5,3.9c1.6,0,2.7-0.4,3.7-1.6l0.1,1.3H150.7z M148.1,21.9
							c-1,0.8-2,1.4-3.2,1.4c-1.2,0-2.3-0.5-2.3-2c0-1.8,1.9-2.2,3.4-2.2c0.6,0,1.3,0,2.2,0.2V21.9z M157,12.4h-2.4V25h2.6v-8.5
							c0.7-1.2,1.6-1.9,2.9-1.9c0.5,0,0.8,0.1,1.2,0.3l0.5-2.6c-0.5-0.1-0.9-0.2-1.5-0.2c-1.3,0-2.4,0.9-3.2,2.3L157,12.4z
							 M164.9,25v-3.1H162V25H164.9z M176.8,22.1c-0.7,0.5-1.8,0.9-2.6,0.9c-2.1,0-3.9-1.7-3.9-4.3c0-2.4,1.8-4.3,3.9-4.3
							c0.9,0,1.8,0.4,2.6,0.9l1.2-2c-1.1-0.8-2.3-1.2-3.8-1.2c-3.7,0-6.6,2.9-6.6,6.6c0,4,2.8,6.6,6.5,6.6c1.6,0,3-0.5,4-1.3
							L176.8,22.1z M183.2,6.2h-2.6V25h2.6v-8.4c0.8-1.3,2.2-2.2,3.5-2.2c1,0,1.7,0.4,2.1,1c0.5,0.9,0.6,2.1,0.6,3.3V25h2.6v-6.6
							c0-1.9-0.2-3.6-1.1-4.8c-0.8-1-1.9-1.6-3.6-1.6c-1.6,0-3.1,0.8-4.1,2.2V6.2z"/>
						<g id="logoMark">
							<g>
								<circle id="Oval-2" class="st0" cx="15.5" cy="15.5" r="15.5"/>
								<path id="Line" class="st1" d="M6.5,16.5v5"/>
								<path id="Line_1_" class="st1" d="M9.5,4.5v19"/>
								<path id="Line_2_" class="st1" d="M13.5,7.5v11"/>
								<path id="Line_3_" class="st1" d="M17.5,12.5v14"/>
								<path id="Line_4_" class="st1" d="M21.5,6.5v16"/>
								<path id="Line_5_" class="st1" d="M24.5,15.5v4"/>
							</g>
						</g>
					</g>
				</g>
			</g>
		</g>
	</g>
</g>
</svg>
