<?xml version="1.0" encoding="utf-8"?>
<!-- Generator: Adobe Illustrator 21.0.2, SVG Export Plug-In . SVG Version: 6.00 Build 0)  -->
<!DOCTYPE svg PUBLIC "-//W3C//DTD SVG 1.1//EN" "http://www.w3.org/Graphics/SVG/1.1/DTD/svg11.dtd">
<svg version="1.1" id="Layer_1" xmlns="http://www.w3.org/2000/svg" xmlns:xlink="http://www.w3.org/1999/xlink" x="0px" y="0px"
	 viewBox="0 0 152 31" style="enable-background:new 0 0 152 31;" xml:space="preserve">
<style type="text/css">
	.st0{fill:#FF006F;}
</style>
<title>logo/whiteandPink</title>
<desc>Created with Sketch.</desc>
<g id="Page-1">
	<g id="_x30_1-AS-Home" transform="translate(-30.000000, -36.000000)">
		<g id="Home_x2F_Intro">
			<g id="Design_x2F_Navigation_x2F_nobg">
				<g id="logo_x2F_whiteandPink" transform="translate(30.000000, 35.000000)">
					<g id="logo_x2F_white" transform="translate(0.000000, 1.000000)">
						<path id="Audiosear.ch" class="st0" d="M16.1,25h3.1L12.5,7.5h-2.3L3.3,25h3l1.3-3.6h7.2L16.1,25z M11.2,11.6L11.2,11.6
							l2.7,7.5H8.4L11.2,11.6z M32.8,25V12.4h-2.6v8.4C29.4,22,28,23,26.7,23c-1,0-1.7-0.4-2.1-1c-0.5-0.9-0.6-2.1-0.6-3.3v-6.4
							h-2.6v6.6c0,1.9,0.2,3.6,1.1,4.8c0.8,1,1.9,1.6,3.6,1.6c1.6,0,3.2-0.8,4.1-2.3l0.1,2C30.3,25,32.8,25,32.8,25z M48.5,6.2h-2.6
							v7.4c-1-1.1-2.5-1.6-3.9-1.6c-3.8,0-6.2,3.2-6.2,6.6c0,3.7,2.6,6.6,6.2,6.6c1.5,0,3.1-0.6,4-2l0.1,1.7h2.5L48.5,6.2L48.5,6.2z
							 M45.9,16.2v4.5c-0.6,1.5-2.2,2.2-3.5,2.2c-2.5,0-4-2-4-4.3c0-2.1,1.3-4.3,4-4.3C43.7,14.4,45.1,15,45.9,16.2z M55.1,25V12.4
							h-2.6V25H55.1z M55.1,10.1V7.4h-2.6v2.7H55.1z M64.6,12.1c-3.8,0-6.5,2.9-6.5,6.6s2.8,6.6,6.5,6.6s6.5-2.9,6.5-6.6
							S68.3,12.1,64.6,12.1z M68.5,18.7c0,2.4-1.6,4.3-3.9,4.3s-3.9-2-3.9-4.3c0-2.4,1.6-4.3,3.9-4.3S68.5,16.3,68.5,18.7z
							 M81.9,13.5c-1-0.9-2.5-1.4-4-1.4c-2.2,0-4.2,1.2-4.2,3.8c0,2.2,1.9,3,3.5,3.7c1.2,0.5,2.4,1,2.4,1.9c0,1.2-1,1.7-2.1,1.7
							s-1.9-0.5-2.8-1.4L73,23.3c1.1,1.3,2.8,2,4.5,2c2.4,0,4.7-1.2,4.7-4c0-2.2-2.1-3.1-3.7-3.8c-1.2-0.5-2.3-0.9-2.3-1.9
							c0-0.9,0.7-1.5,1.7-1.5c0.9,0,1.9,0.5,2.5,1L81.9,13.5z M87.1,19.3h9.5c0.1-0.4,0.1-1,0.1-1.4c0-3.4-2.5-5.9-5.9-5.9
							c-3.6,0-6.3,2.9-6.3,6.7c0,3.7,2.3,6.6,6.3,6.6c2.6,0,4.3-0.9,5.6-3l-1.8-1.2c-0.8,1.4-2,2-3.7,2
							C88.7,23.1,87.3,21.4,87.1,19.3z M94.1,17.4h-6.8c0.4-1.8,1.6-3.2,3.6-3.2C92.7,14.2,93.9,15.6,94.1,17.4z M109.7,25v-7.7
							c0-3.3-1.4-5.3-5.1-5.3c-1.8,0-3.7,0.6-5.1,1.2l0.7,2.1c1.1-0.6,2.5-1.1,4-1.1c2,0,2.9,1.1,2.9,2.9v0.4
							c-1-0.2-1.8-0.3-2.5-0.3c-2.8,0-5.6,1-5.6,4.2c0,2.7,2.2,3.9,4.5,3.9c1.6,0,2.7-0.4,3.7-1.6l0.1,1.3
							C107.3,25,109.7,25,109.7,25z M107.1,21.9c-1,0.8-2,1.4-3.2,1.4s-2.3-0.5-2.3-2c0-1.8,1.9-2.2,3.4-2.2c0.6,0,1.3,0,2.2,0.2
							L107.1,21.9L107.1,21.9z M116,12.4h-2.4V25h2.6v-8.5c0.7-1.2,1.6-1.9,2.9-1.9c0.5,0,0.8,0.1,1.2,0.3l0.5-2.6
							c-0.5-0.1-0.9-0.2-1.5-0.2c-1.3,0-2.4,0.9-3.2,2.3L116,12.4z M123.9,25v-3.1H121V25H123.9z M135.8,22.1
							c-0.7,0.5-1.8,0.9-2.6,0.9c-2.1,0-3.9-1.7-3.9-4.3c0-2.4,1.8-4.3,3.9-4.3c0.9,0,1.8,0.4,2.6,0.9l1.2-2
							c-1.1-0.8-2.3-1.2-3.8-1.2c-3.7,0-6.6,2.9-6.6,6.6c0,4,2.8,6.6,6.5,6.6c1.6,0,3-0.5,4-1.3L135.8,22.1z M142.2,6.2h-2.6V25h2.6
							v-8.4c0.8-1.3,2.2-2.2,3.5-2.2c1,0,1.7,0.4,2.1,1c0.5,0.9,0.6,2.1,0.6,3.3V25h2.6v-6.6c0-1.9-0.2-3.6-1.1-4.8
							c-0.8-1-1.9-1.6-3.6-1.6c-1.6,0-3.1,0.8-4.1,2.2V6.2z"/>
					</g>
				</g>
			</g>
		</g>
	</g>
</g>
</svg>
