<?xml version="1.0" encoding="UTF-8"?>
<svg width="193px" height="31px" viewBox="0 0 193 31" version="1.1" xmlns="http://www.w3.org/2000/svg" xmlns:xlink="http://www.w3.org/1999/xlink">
    <!-- Generator: Sketch 41.2 (35397) - http://www.bohemiancoding.com/sketch -->
    <title>logo/whiteandPink</title>
    <desc>Created with Sketch.</desc>
    <defs></defs>
    <g id="Page-1" stroke="none" stroke-width="1" fill="none" fill-rule="evenodd">
        <g id="01-AS-Home" transform="translate(-30.000000, -36.000000)">
            <g id="Home/Intro">
                <g id="Design/Navigation/nobg">
                    <g id="logo/whiteandPink" transform="translate(30.000000, 35.000000)">
                        <g id="logo/white" transform="translate(0.000000, 1.000000)">
                            <path d="M57.075,25 L60.175,25 L53.5,7.5 L51.225,7.5 L44.35,25 L47.3,25 L48.6,21.4 L55.775,21.4 L57.075,25 Z M52.2,11.575 L52.225,11.575 L54.925,19.05 L49.475,19.05 L52.2,11.575 Z M73.775,25 L73.775,12.35 L71.2,12.35 L71.2,20.725 C70.375,22.05 69.025,22.975 67.675,22.975 C66.65,22.975 65.975,22.6 65.6,22 C65.05,21.125 65,19.85 65,18.7 L65,12.35 L62.425,12.35 L62.425,18.925 C62.425,20.825 62.675,22.5 63.55,23.7 C64.3,24.7 65.475,25.3 67.15,25.3 C68.775,25.3 70.3,24.475 71.25,23 L71.325,25 L73.775,25 Z M89.525,6.25 L86.95,6.25 L86.95,13.7 C85.95,12.65 84.45,12.05 83.025,12.05 C79.275,12.05 76.775,15.25 76.775,18.65 C76.775,22.35 79.4,25.3 82.975,25.3 C84.45,25.3 86.1,24.65 87,23.325 L87.075,25 L89.525,25 L89.525,6.25 Z M86.95,16.2 L86.95,20.725 C86.3,22.225 84.7,22.975 83.4,22.975 C80.925,22.975 79.4,20.95 79.4,18.7 C79.4,16.625 80.7,14.375 83.45,14.375 C84.7,14.375 86.1,15 86.95,16.2 Z M96.1,25 L96.1,12.35 L93.525,12.35 L93.525,25 L96.1,25 Z M96.1,10.05 L96.1,7.375 L93.525,7.375 L93.525,10.05 L96.1,10.05 Z M105.6,12.05 C101.85,12.05 99.1,14.975 99.1,18.675 C99.1,22.375 101.85,25.3 105.6,25.3 C109.325,25.3 112.1,22.375 112.1,18.675 C112.1,14.975 109.325,12.05 105.6,12.05 Z M109.475,18.675 C109.475,21.025 107.85,22.975 105.6,22.975 C103.35,22.975 101.725,21.025 101.725,18.675 C101.725,16.3 103.35,14.375 105.6,14.375 C107.85,14.375 109.475,16.3 109.475,18.675 Z M122.95,13.5 C121.9,12.55 120.45,12.05 118.95,12.05 C116.775,12.05 114.75,13.275 114.75,15.85 C114.75,18.1 116.625,18.85 118.275,19.525 C119.525,20.025 120.675,20.475 120.675,21.45 C120.675,22.625 119.675,23.175 118.575,23.175 C117.5,23.175 116.625,22.7 115.75,21.8 L114.05,23.275 C115.15,24.6 116.8,25.3 118.6,25.3 C121,25.3 123.25,24.125 123.25,21.3 C123.25,19.05 121.2,18.15 119.55,17.5 C118.375,17.025 117.225,16.575 117.225,15.65 C117.225,14.75 117.925,14.15 118.95,14.15 C119.85,14.15 120.875,14.6 121.45,15.125 L122.95,13.5 Z M128.15,19.325 L137.6,19.325 C137.675,18.95 137.725,18.375 137.725,17.925 C137.725,14.55 135.25,12.05 131.85,12.05 C128.3,12.05 125.55,14.925 125.55,18.7 C125.55,22.425 127.875,25.3 131.85,25.3 C134.45,25.3 136.15,24.35 137.45,22.3 L135.65,21.125 C134.875,22.5 133.65,23.125 131.975,23.125 C129.725,23.125 128.325,21.4 128.15,19.325 Z M135.05,17.35 L128.3,17.35 C128.75,15.575 129.95,14.2 131.9,14.2 C133.675,14.2 134.95,15.625 135.05,17.35 Z M150.675,25 L150.675,17.325 C150.675,14.05 149.25,12.05 145.625,12.05 C143.85,12.05 141.9,12.6 140.525,13.25 L141.25,15.325 C142.3,14.75 143.775,14.2 145.225,14.2 C147.25,14.2 148.1,15.275 148.1,17.125 L148.1,17.5 C147.075,17.3 146.275,17.225 145.625,17.225 C142.875,17.225 140.025,18.225 140.025,21.4 C140.025,24.1 142.175,25.3 144.525,25.3 C146.075,25.3 147.25,24.85 148.225,23.725 L148.3,25 L150.675,25 Z M148.1,21.85 C147.15,22.65 146.125,23.25 144.9,23.25 C143.65,23.25 142.55,22.7 142.55,21.275 C142.55,19.475 144.475,19.075 145.95,19.075 C146.575,19.075 147.225,19.125 148.1,19.3 L148.1,21.85 Z M157,12.35 L154.55,12.35 L154.55,25 L157.125,25 L157.125,16.5 C157.825,15.275 158.775,14.55 160,14.55 C160.475,14.55 160.825,14.625 161.2,14.825 L161.725,12.225 C161.25,12.1 160.825,12.05 160.275,12.05 C158.95,12.05 157.825,13 157.075,14.325 L157,12.35 Z M164.9,25 L164.9,21.9 L161.975,21.9 L161.975,25 L164.9,25 Z M176.775,22.075 C176.075,22.625 175,22.975 174.15,22.975 C172.05,22.975 170.2,21.25 170.2,18.675 C170.2,16.3 171.95,14.375 174.15,14.375 C175.075,14.375 175.975,14.725 176.7,15.275 L177.95,13.25 C176.875,12.475 175.6,12.05 174.15,12.05 C170.425,12.05 167.575,14.975 167.575,18.675 C167.575,22.65 170.4,25.3 174.05,25.3 C175.625,25.3 177.075,24.825 178.075,23.975 L176.775,22.075 Z M183.25,6.25 L180.675,6.25 L180.675,25 L183.25,25 L183.25,16.625 C184.075,15.3 185.425,14.375 186.775,14.375 C187.8,14.375 188.475,14.75 188.85,15.35 C189.4,16.225 189.45,17.5 189.45,18.65 L189.45,25 L192.025,25 L192.025,18.425 C192.025,16.525 191.775,14.85 190.9,13.65 C190.15,12.65 188.975,12.05 187.3,12.05 C185.7,12.05 184.2,12.875 183.25,14.3 L183.25,6.25 Z" id="Audiosear.ch" fill="#FFFFFF"></path>
                            <g id="logoMark">
                                <g>
                                    <circle id="Oval-2" fill="#FF006F" cx="15.5" cy="15.5" r="15.5"></circle>
                                    <path d="M6.5,16.5 L6.5,21.5" id="Line" stroke="#FFFFFF" stroke-linecap="square"></path>
                                    <path d="M9.5,4.5 L9.5,23.5262976" id="Line" stroke="#FFFFFF" stroke-linecap="square"></path>
                                    <path d="M13.5,7.5 L13.5,18.5" id="Line" stroke="#FFFFFF" stroke-linecap="square"></path>
                                    <path d="M17.5,12.5 L17.5,26.5" id="Line" stroke="#FFFFFF" stroke-linecap="square"></path>
                                    <path d="M21.5,6.5 L21.5,22.5" id="Line" stroke="#FFFFFF" stroke-linecap="square"></path>
                                    <path d="M24.5,15.5 L24.5,19.5" id="Line" stroke="#FFFFFF" stroke-linecap="square"></path>
                                </g>
                            </g>
                        </g>
                    </g>
                </g>
            </g>
        </g>
    </g>
</svg>